# xmcd
# 
# Track frame offsets:
#     150
#     11840
#     25723
#     40185
#     54823
#     71353
#     86318
#     104035
#     118878
#     133653
#     147103
#     160858
#     176000
#     191473
#     204768
#     225533
#     239360
#     252930
#     265010
#     281978
# 
# Disc length: 4016
# 
# Revision: 12
# Processed by: cddbd v1.5.2PL0 Copyright (c) Steve Scherf et al.
# Submitted via: fre:ac v1.0.27
# 
DISCID=100fae14
DTITLE=Various Artist - 続・青春歌年鑑 '70
DYEAR=2002
DGENRE=JPop
TTITLE0=ソルティー・シュガー - 走れコウタロー
TTITLE1=西郷  輝彦 - 真夏のあらし
TTITLE2=奥村チヨ - 恋狂い
TTITLE3=ピーター - 愛の美学
TTITLE4=美川憲一 - みれん町
TTITLE5=日吉ミミ - 男と女のお話
TTITLE6=胡浜三郎 - 女のまごころ
TTITLE7=青江三奈 - 夜の瀬戸内
TTITLE8=森進一 - 波止場女のブルース
TTITLE9=安倍律子 - 愛のきずな
TTITLE10=月亭可朝 - 嘆きのボイン
TTITLE11=黛ジュン - 自由の女神
TTITLE12=藤圭子 - 命預けます
TTITLE13=森進一 - 銀座の女
TTITLE14=岸洋子 - 希望
TTITLE15=中山千夏 - あなたの心に
TTITLE16=いしだあゆみ - 昨日の女
TTITLE17=和田アキ子 - 笑って許して
TTITLE18=ちあきなおみ - 朝がくるまえに
TTITLE19=青江三奈 - 国際線待合室
EXTD=2002/11/27\nビクターエンタテインメント\nVICL-61015
EXTT0=
EXTT1=
EXTT2=
EXTT3=
EXTT4=
EXTT5=
EXTT6=
EXTT7=
EXTT8=
EXTT9=
EXTT10=
EXTT11=
EXTT12=
EXTT13=
EXTT14=
EXTT15=
EXTT16=
EXTT17=
EXTT18=
EXTT19=
PLAYORDER=
